<svg xmlns="http://www.w3.org/2000/svg" viewBox="0 0 543.28 516.48"><defs><style>.cls-1{fill:#231f20;}.cls-2{fill:none;stroke:#231f20;stroke-miterlimit:10;stroke-width:1.68px;}.cls-3{fill:#232323;}</style></defs><title>Asset 1</title><g id="Layer_2" data-name="Layer 2"><g id="Layer_1-2" data-name="Layer 1"><path class="cls-1" d="M154.06,290.06l-1.07.57a2.24,2.24,0,0,0-2.23-1.45,2.06,2.06,0,0,0-1.59.63,2,2,0,0,0-.58,1.41,1.55,1.55,0,0,0,.35,1,2.59,2.59,0,0,0,.72.63,12.75,12.75,0,0,0,1.19.52,4.57,4.57,0,0,1,.62.23l.64.27.55.23a2.86,2.86,0,0,1,.58.32c.13.09.28.21.46.36a2.91,2.91,0,0,1,.46.47,3.22,3.22,0,0,1,.66,2.08,3.73,3.73,0,0,1-1.25,3.06,4.41,4.41,0,0,1-2.94,1,4.55,4.55,0,0,1-2.83-.92,4.39,4.39,0,0,1-1.6-2.48l1.23-.38a3.3,3.3,0,0,0,1.21,1.9,3.18,3.18,0,0,0,2,.68,2.84,2.84,0,0,0,2.05-.8,2.75,2.75,0,0,0,.82-2,2,2,0,0,0-.63-1.56,8.81,8.81,0,0,0-2.24-1.21,7,7,0,0,1-2.79-1.7,2.67,2.67,0,0,1-.57-1.66,3.14,3.14,0,0,1,1-2.38,3.46,3.46,0,0,1,2.46-.92A3.31,3.31,0,0,1,154.06,290.06Z"/><path class="cls-1" d="M172.64,294.84h-11a5.32,5.32,0,0,0,1.49,3.9,4.88,4.88,0,0,0,3.6,1.51,4.65,4.65,0,0,0,2.68-.8,5.36,5.36,0,0,0,1.79-2.12l1.07.62a7.26,7.26,0,0,1-2.11,2.44,5.65,5.65,0,0,1-3.52,1.06,5.87,5.87,0,0,1-4.62-1.91,6.93,6.93,0,0,1-1.7-4.79,6.6,6.6,0,0,1,1.84-5,6,6,0,0,1,4.39-1.79,5.63,5.63,0,0,1,4.34,1.91A7.11,7.11,0,0,1,172.64,294.84Zm-10.88-1.19h9.56a5.2,5.2,0,0,0-1.55-3.21,4.43,4.43,0,0,0-3.19-1.26,4.52,4.52,0,0,0-3.24,1.27A5.29,5.29,0,0,0,161.76,293.65Z"/><path class="cls-1" d="M186,290.06l-1.07.57a2.24,2.24,0,0,0-2.23-1.45,2.06,2.06,0,0,0-1.59.63,2,2,0,0,0-.58,1.41,1.55,1.55,0,0,0,.35,1,2.59,2.59,0,0,0,.72.63,12.75,12.75,0,0,0,1.19.52,4.57,4.57,0,0,1,.62.23l.64.27.55.23a2.86,2.86,0,0,1,.58.32c.13.09.28.21.46.36a2.91,2.91,0,0,1,.46.47,3.22,3.22,0,0,1,.66,2.08,3.73,3.73,0,0,1-1.25,3.06,4.41,4.41,0,0,1-2.94,1,4.53,4.53,0,0,1-2.83-.92,4.39,4.39,0,0,1-1.6-2.48l1.23-.38a3.3,3.3,0,0,0,1.21,1.9,3.16,3.16,0,0,0,2,.68,2.84,2.84,0,0,0,2-.8,2.75,2.75,0,0,0,.82-2,2,2,0,0,0-.63-1.56,8.81,8.81,0,0,0-2.24-1.21,7,7,0,0,1-2.79-1.7,2.67,2.67,0,0,1-.57-1.66,3.14,3.14,0,0,1,1-2.38,3.46,3.46,0,0,1,2.46-.92A3.31,3.31,0,0,1,186,290.06Z"/><path class="cls-1" d="M199.69,290.06l-1.07.57a2.25,2.25,0,0,0-2.23-1.45,2,2,0,0,0-1.59.63,2,2,0,0,0-.58,1.41,1.6,1.6,0,0,0,.34,1,2.48,2.48,0,0,0,.73.63,12.75,12.75,0,0,0,1.19.52,4.65,4.65,0,0,1,.61.23l.65.27.55.23a3.18,3.18,0,0,1,.58.32c.13.09.28.21.46.36a2.83,2.83,0,0,1,.45.47,3.22,3.22,0,0,1,.66,2.08,3.72,3.72,0,0,1-1.24,3.06,4.45,4.45,0,0,1-2.94,1,4.53,4.53,0,0,1-2.83-.92,4.34,4.34,0,0,1-1.6-2.48l1.22-.38a3.35,3.35,0,0,0,1.21,1.9,3.21,3.21,0,0,0,2,.68,2.8,2.8,0,0,0,2-.8,2.71,2.71,0,0,0,.82-2,2,2,0,0,0-.63-1.56,8.71,8.71,0,0,0-2.23-1.21,7.09,7.09,0,0,1-2.8-1.7,2.66,2.66,0,0,1-.56-1.66,3.14,3.14,0,0,1,1-2.38,3.45,3.45,0,0,1,2.45-.92A3.33,3.33,0,0,1,199.69,290.06Z"/><path class="cls-1" d="M208.23,284.83a1.15,1.15,0,0,1-1.61,0,1.22,1.22,0,0,1,0-1.67,1.15,1.15,0,0,1,1.61,0,1.22,1.22,0,0,1,0,1.67Zm-1.43,3.44h1.25V301.1H206.8Z"/><path class="cls-1" d="M216.84,289.92a6.92,6.92,0,1,1-1.93,4.8A6.51,6.51,0,0,1,216.84,289.92Zm.94,8.73a5.44,5.44,0,0,0,7.71,0,5.76,5.76,0,0,0,0-7.86,5.42,5.42,0,0,0-7.71,0,5.76,5.76,0,0,0,0,7.86Z"/><path class="cls-1" d="M235.22,301.1V288.27h1.26v2a4.21,4.21,0,0,1,3.93-2.29,3.93,3.93,0,0,1,3.55,1.79,6.32,6.32,0,0,1,.63,3.24v8.08h-1.26V293a5,5,0,0,0-.5-2.58,2.7,2.7,0,0,0-2.52-1.26,3.36,3.36,0,0,0-3.14,1.79,7.14,7.14,0,0,0-.69,3.46v6.67Z"/><path class="cls-1" d="M258.81,290.06l-1.07.57a2.25,2.25,0,0,0-2.24-1.45,2.09,2.09,0,0,0-2.17,2,1.6,1.6,0,0,0,.35,1,2.59,2.59,0,0,0,.72.63,12.05,12.05,0,0,0,1.2.52,4.65,4.65,0,0,1,.61.23l.65.27.55.23a3.18,3.18,0,0,1,.58.32l.45.36a2.54,2.54,0,0,1,.46.47,3.22,3.22,0,0,1,.66,2.08,3.72,3.72,0,0,1-1.24,3.06,4.45,4.45,0,0,1-2.94,1,4.53,4.53,0,0,1-2.83-.92,4.4,4.4,0,0,1-1.61-2.48l1.23-.38a3.3,3.3,0,0,0,1.21,1.9,3.19,3.19,0,0,0,2,.68,2.8,2.8,0,0,0,2-.8,2.71,2.71,0,0,0,.82-2,2,2,0,0,0-.63-1.56,8.71,8.71,0,0,0-2.23-1.21,7.09,7.09,0,0,1-2.8-1.7,2.67,2.67,0,0,1-.57-1.66,3.14,3.14,0,0,1,1-2.38,3.45,3.45,0,0,1,2.45-.92A3.33,3.33,0,0,1,258.81,290.06Z"/><path class="cls-1" d="M286.82,290.5V278.17h1.26V301.1h-1.26v-2.3a5.59,5.59,0,0,1-5,2.65,6.16,6.16,0,0,1-4.45-1.81,6.75,6.75,0,0,1-1.83-5,6.33,6.33,0,0,1,1.85-4.95,6.39,6.39,0,0,1,4.43-1.68A5.72,5.72,0,0,1,286.82,290.5Zm-5-1.32a4.8,4.8,0,0,0-3.53,1.42,5.33,5.33,0,0,0-1.43,4,5.67,5.67,0,0,0,1.48,4.17,4.81,4.81,0,0,0,3.55,1.49,4.73,4.73,0,0,0,3.5-1.49,5.7,5.7,0,0,0,1.47-4.17,5.63,5.63,0,0,0-1.36-3.87A4.65,4.65,0,0,0,281.85,289.18Z"/><path class="cls-1" d="M296.76,280.12l-.22,8.46h-.94l-.22-8.46Z"/><path class="cls-1" d="M315.53,294.84h-11a5.29,5.29,0,0,0,1.5,3.9,4.88,4.88,0,0,0,3.6,1.51,4.62,4.62,0,0,0,2.67-.8,5.28,5.28,0,0,0,1.79-2.12l1.07.62a7.23,7.23,0,0,1-2.1,2.44,5.7,5.7,0,0,1-3.53,1.06,5.9,5.9,0,0,1-4.62-1.91,6.93,6.93,0,0,1-1.7-4.79,6.63,6.63,0,0,1,1.84-5,6.06,6.06,0,0,1,4.39-1.79,5.62,5.62,0,0,1,4.34,1.91A7.12,7.12,0,0,1,315.53,294.84Zm-10.88-1.19h9.56a5.26,5.26,0,0,0-1.56-3.21,4.41,4.41,0,0,0-3.19-1.26,4.52,4.52,0,0,0-3.24,1.27A5.28,5.28,0,0,0,304.65,293.65Zm6.51-12,1.35.79-3.3,4-.94-.5Z"/><path class="cls-1" d="M332.67,289.62v1.67a5.66,5.66,0,0,0-4.44-2.11,5,5,0,0,0-3.83,1.59,5.53,5.53,0,0,0-1.51,4,5.19,5.19,0,0,0,1.6,4,5.33,5.33,0,0,0,3.68,1.46,6.23,6.23,0,0,0,4.66-2.3v1.7a6.84,6.84,0,0,1-4.69,1.8,6.28,6.28,0,0,1-4.73-1.91,6.56,6.56,0,0,1-1.84-4.76,6.83,6.83,0,0,1,1.82-4.86,6.34,6.34,0,0,1,4.84-1.93A6.71,6.71,0,0,1,332.67,289.62Z"/><path class="cls-1" d="M340.55,289.92a6.9,6.9,0,1,1-1.94,4.8A6.49,6.49,0,0,1,340.55,289.92Zm.94,8.73a5.43,5.43,0,0,0,7.7,0,5.73,5.73,0,0,0,0-7.86,5.41,5.41,0,0,0-7.7,0,5.73,5.73,0,0,0,0,7.86Z"/><path class="cls-1" d="M358.93,288.27h1.26V296a5,5,0,0,0,.81,3.21,3.65,3.65,0,0,0,5.1,0,5,5,0,0,0,.81-3.21v-7.73h1.26v8.08a5.62,5.62,0,0,1-1,3.52,5,5,0,0,1-7.3,0,5.62,5.62,0,0,1-1-3.52Z"/><path class="cls-1" d="M379.43,289.46h-2.24V301.1h-1.25V289.46h-1.42v-1.19h1.42v-4.59h1.25v4.59h2.24Z"/><path class="cls-1" d="M396.56,294.84h-11a5.32,5.32,0,0,0,1.49,3.9,4.88,4.88,0,0,0,3.6,1.51,4.6,4.6,0,0,0,2.67-.8,5.31,5.31,0,0,0,1.8-2.12l1.07.62a7.26,7.26,0,0,1-2.11,2.44,5.67,5.67,0,0,1-3.52,1.06,5.87,5.87,0,0,1-4.62-1.91,6.88,6.88,0,0,1-1.7-4.79,6.6,6.6,0,0,1,1.84-5,6,6,0,0,1,4.38-1.79,5.6,5.6,0,0,1,4.34,1.91A7.07,7.07,0,0,1,396.56,294.84Zm-10.88-1.19h9.56a5.25,5.25,0,0,0-1.55-3.21,4.44,4.44,0,0,0-3.2-1.26,4.54,4.54,0,0,0-3.24,1.27A5.33,5.33,0,0,0,385.68,293.65Z"/><line class="cls-2" x1="160.85" y1="31.97" x2="204.21" y2="114.9"/><line class="cls-2" x1="113.25" y1="64.68" x2="175.14" y2="134.88"/><line class="cls-2" x1="74.83" y1="107.81" x2="151.67" y2="161.21"/><line class="cls-2" x1="47.8" y1="158.85" x2="135.17" y2="192.39"/><line class="cls-2" x1="33.73" y1="214.87" x2="126.58" y2="226.6"/><line class="cls-2" x1="33.43" y1="272.63" x2="126.39" y2="261.87"/><line class="cls-2" x1="46.91" y1="328.79" x2="134.62" y2="296.17"/><line class="cls-2" x1="73.4" y1="380.11" x2="150.8" y2="327.51"/><line class="cls-2" x1="111.37" y1="423.64" x2="173.99" y2="354.09"/><line class="cls-2" x1="158.63" y1="456.85" x2="202.85" y2="374.37"/><line class="cls-2" x1="212.44" y1="477.83" x2="235.71" y2="387.19"/><line class="cls-2" x1="269.7" y1="485.37" x2="270.68" y2="391.79"/><line class="cls-2" x1="327.11" y1="479.03" x2="305.74" y2="387.92"/><line class="cls-2" x1="381.35" y1="459.18" x2="338.87" y2="375.8"/><line class="cls-2" x1="429.29" y1="426.96" x2="368.14" y2="356.12"/><line class="cls-2" x1="468.16" y1="384.25" x2="391.88" y2="330.04"/><line class="cls-2" x1="495.72" y1="333.49" x2="408.71" y2="299.04"/><line class="cls-2" x1="510.38" y1="277.62" x2="417.66" y2="264.92"/><line class="cls-2" x1="511.29" y1="219.87" x2="418.22" y2="229.65"/><line class="cls-2" x1="498.39" y1="163.57" x2="410.34" y2="195.27"/><line class="cls-2" x1="472.44" y1="111.97" x2="394.49" y2="163.76"/><line class="cls-2" x1="434.93" y1="68.05" x2="371.59" y2="136.94"/><line class="cls-2" x1="388.02" y1="34.35" x2="342.94" y2="116.35"/><line class="cls-2" x1="334.43" y1="12.8" x2="310.21" y2="103.2"/><line class="cls-2" x1="277.25" y1="4.67" x2="275.29" y2="98.23"/><line class="cls-2" x1="219.78" y1="10.4" x2="240.2" y2="101.73"/><rect class="cls-3" x="370.28" y="0.43" width="21.05" height="93.21" transform="translate(70.32 -178.41) rotate(28.94)"/><rect class="cls-3" x="414.05" y="32.06" width="21.05" height="93.21" transform="translate(165.88 -267.06) rotate(42.7)"/><rect class="cls-3" x="473.26" y="121.48" width="21.05" height="93.21" transform="translate(478.1 -344.04) rotate(70.21)"/><rect class="cls-3" x="485.29" y="174.12" width="21.05" height="93.21" transform="translate(663.15 -295.56) rotate(83.96)"/><rect class="cls-3" x="484.47" y="228.12" width="21.05" height="93.21" transform="matrix(-0.13, 0.99, -0.99, -0.13, 833.68, -178.91)"/><rect class="cls-3" x="445.16" y="327.89" width="21.05" height="93.21" transform="translate(1024.44 218.24) rotate(125.22)"/><rect class="cls-3" x="408.93" y="367.94" width="21.05" height="93.21" transform="translate(1008 451.99) rotate(138.98)"/><rect class="cls-3" x="313.57" y="417.01" width="21.05" height="93.21" transform="translate(747.57 838.65) rotate(166.48)"/><rect class="cls-3" x="259.93" y="423.22" width="21.05" height="93.21" transform="translate(538.94 940.78) rotate(-179.76)"/><rect class="cls-3" x="206.34" y="416.49" width="21.05" height="93.21" transform="translate(315.31 964.9) rotate(-166.01)"/><rect class="cls-3" x="111.47" y="366.5" width="21.05" height="93.21" transform="translate(-60.38 803.34) rotate(-138.5)"/><rect class="cls-3" x="75.62" y="326.11" width="21.05" height="93.21" transform="translate(-171.01 655.92) rotate(-124.74)"/><rect class="cls-3" x="37.28" y="225.96" width="21.05" height="93.21" transform="translate(-216.58 354.32) rotate(-97.24)"/><rect class="cls-3" x="36.97" y="171.96" width="21.05" height="93.21" transform="translate(-175.04 240.95) rotate(-83.48)"/><rect class="cls-3" x="49.52" y="119.43" width="21.05" height="93.21" transform="translate(-116.51 164.83) rotate(-69.73)"/><rect class="cls-3" x="109.59" y="30.59" width="21.05" height="93.21" transform="translate(-20.72 100.74) rotate(-42.22)"/><rect class="cls-3" x="153.66" y="-0.62" width="21.05" height="93.21" transform="translate(-2.07 83.81) rotate(-28.46)"/><path class="cls-1" d="M141.72,210.62h6.73l5.14,23.81q.94,4.47,1.72,8.95c.51,3,1,6.11,1.42,9.39.05-.43.08-.76.11-1a4.45,4.45,0,0,1,.07-.51l1.1-6.69,1-6.35.87-4.2,4.58-23.4h6.8L176.61,269h-7.52l-1.32-19.81c-.05-1-.1-1.88-.14-2.61s0-1.33,0-1.81l-.34-7.83-.19-7.18c0-.05,0-.16,0-.32s0-.39-.06-.67l-.19,1.18c-.2,1.38-.38,2.59-.55,3.63s-.3,1.9-.43,2.6l-1,5.33-.38,2L159.52,269h-5.29l-4.61-22q-.94-4.35-1.68-8.83c-.5-3-.94-6.12-1.35-9.4L144.33,269h-7.42Z"/><path class="cls-1" d="M199.18,210.62h6.12L217.82,269H210l-2.19-11.38H196.27L194,269h-7.57Zm7.52,40.9-1.74-9.3q-1.74-9.48-2.83-20.26-.54,5.25-1.36,10.64t-2,11.44l-1.44,7.48Z"/><path class="cls-1" d="M230.17,210.62h10.36q6.43,0,9.57,3.06,4,4,4,12.13,0,6.28-2.1,10.08a9,9,0,0,1-6,4.71L256.71,269h-8L238,240.41V269h-7.87ZM238,236.48q4.58,0,6.46-2.12t1.89-7.15a23.89,23.89,0,0,0-.39-4.65,8.5,8.5,0,0,0-1.25-3.13,5,5,0,0,0-2.2-1.78,8.08,8.08,0,0,0-3.19-.57H238Z"/><path class="cls-1" d="M266.64,210.62h25.6v6.88h-8.81V269h-7.71V217.5h-9.08Z"/><path class="cls-1" d="M304.33,210.62h20.91v6.65h-13v18.49h11.56v6.65H312.2v19.93h13V269H304.33Z"/><path class="cls-1" d="M348.52,210.62h6.13L367.16,269h-7.79l-2.19-11.38H345.61L343.38,269h-7.56Zm7.53,40.9-1.74-9.3q-1.74-9.48-2.84-20.26c-.35,3.5-.81,7-1.36,10.64s-1.21,7.4-2,11.44l-1.43,7.48Z"/><path class="cls-1" d="M379.52,210.62h7.71v41.24q0,6.31,1.13,8.4c.79,1.38,2.32,2.08,4.62,2.08s3.8-.61,4.53-1.82,1.14-3.74,1.14-7.52V210.62h7.71V253q0,9.53-2.91,12.89-3.48,3.83-10.62,3.82-7.87,0-11.08-4.92-2.24-3.36-2.23-12.93Z"/></g></g></svg>